<svg viewBox="0 0 900 64" width="900" height="64" xmlns="http://www.w3.org/2000/svg" font-family="ui-monospace, 'Cascadia Code', 'SF Mono', Consolas, monospace">
<defs><filter id="glow" x="-50%" y="-50%" width="200%" height="200%"><feGaussianBlur stdDeviation="1.4" result="blur"/><feMerge><feMergeNode in="blur"/><feMergeNode in="SourceGraphic"/></feMerge></filter><pattern id="scan" width="3" height="3" patternUnits="userSpaceOnUse"><rect width="3" height="1" fill="#0a0d12" opacity="0.55"/></pattern><clipPath id="frame"><rect width="900" height="64" rx="14"/></clipPath></defs>
<rect width="100%" height="100%" rx="14" fill="#0a0d12"/>
<rect x="0.5" y="0.5" width="899" height="63" rx="14" fill="none" stroke="#1c2230" stroke-width="1"/>
<g clip-path="url(#frame)">
<g>
<animateTransform attributeName="transform" type="translate" from="0 0" to="-1040.6 0" begin="0s" dur="18.92s" repeatCount="indefinite"/>
<g transform="translate(0,0)"><rect x="0.0" y="17.0" width="52.2" height="30" rx="15.0" fill="#0a0d12" stroke="#ffb454" stroke-width="1.2" filter="url(#glow)"/><circle cx="16.0" cy="32.0" r="3" fill="#ffb454"/><text x="26.0" y="36.5" font-size="13" fill="#c7cdd6">n8n</text><rect x="66.2" y="17.0" width="76.4" height="30" rx="15.0" fill="#0a0d12" stroke="#5ad1e6" stroke-width="1.2" filter="url(#glow)"/><circle cx="82.2" cy="32.0" r="3" fill="#5ad1e6"/><text x="92.2" y="36.5" font-size="13" fill="#c7cdd6">OpenAI</text><rect x="156.5" y="17.0" width="100.5" height="30" rx="15.0" fill="#0a0d12" stroke="#39d353" stroke-width="1.2" filter="url(#glow)"/><circle cx="172.5" cy="32.0" r="3" fill="#39d353"/><text x="182.5" y="36.5" font-size="13" fill="#c7cdd6">LangChain</text><rect x="271.1" y="17.0" width="76.4" height="30" rx="15.0" fill="#0a0d12" stroke="#ff3ec8" stroke-width="1.2" filter="url(#glow)"/><circle cx="287.1" cy="32.0" r="3" fill="#ff3ec8"/><text x="297.1" y="36.5" font-size="13" fill="#c7cdd6">Gemini</text><rect x="361.4" y="17.0" width="84.4" height="30" rx="15.0" fill="#0a0d12" stroke="#5ad1e6" stroke-width="1.2" filter="url(#glow)"/><circle cx="377.4" cy="32.0" r="3" fill="#5ad1e6"/><text x="387.4" y="36.5" font-size="13" fill="#c7cdd6">FastAPI</text><rect x="459.9" y="17.0" width="92.5" height="30" rx="15.0" fill="#0a0d12" stroke="#39d353" stroke-width="1.2" filter="url(#glow)"/><circle cx="475.9" cy="32.0" r="3" fill="#39d353"/><text x="485.9" y="36.5" font-size="13" fill="#c7cdd6">Supabase</text><rect x="566.3" y="17.0" width="100.5" height="30" rx="15.0" fill="#0a0d12" stroke="#ffb454" stroke-width="1.2" filter="url(#glow)"/><circle cx="582.3" cy="32.0" r="3" fill="#ffb454"/><text x="592.3" y="36.5" font-size="13" fill="#c7cdd6">Pipedrive</text><rect x="680.9" y="17.0" width="148.9" height="30" rx="15.0" fill="#0a0d12" stroke="#ff3ec8" stroke-width="1.2" filter="url(#glow)"/><circle cx="696.9" cy="32.0" r="3" fill="#ff3ec8"/><text x="706.9" y="36.5" font-size="13" fill="#c7cdd6">RAG / Vector DB</text><rect x="843.8" y="17.0" width="84.4" height="30" rx="15.0" fill="#0a0d12" stroke="#c7cdd6" stroke-width="1.2" filter="url(#glow)"/><circle cx="859.8" cy="32.0" r="3" fill="#c7cdd6"/><text x="869.8" y="36.5" font-size="13" fill="#c7cdd6">Next.js</text><rect x="942.2" y="17.0" width="84.4" height="30" rx="15.0" fill="#0a0d12" stroke="#5ad1e6" stroke-width="1.2" filter="url(#glow)"/><circle cx="958.2" cy="32.0" r="3" fill="#5ad1e6"/><text x="968.2" y="36.5" font-size="13" fill="#c7cdd6">Flutter</text></g>
<g transform="translate(1040.6,0)"><rect x="0.0" y="17.0" width="52.2" height="30" rx="15.0" fill="#0a0d12" stroke="#ffb454" stroke-width="1.2" filter="url(#glow)"/><circle cx="16.0" cy="32.0" r="3" fill="#ffb454"/><text x="26.0" y="36.5" font-size="13" fill="#c7cdd6">n8n</text><rect x="66.2" y="17.0" width="76.4" height="30" rx="15.0" fill="#0a0d12" stroke="#5ad1e6" stroke-width="1.2" filter="url(#glow)"/><circle cx="82.2" cy="32.0" r="3" fill="#5ad1e6"/><text x="92.2" y="36.5" font-size="13" fill="#c7cdd6">OpenAI</text><rect x="156.5" y="17.0" width="100.5" height="30" rx="15.0" fill="#0a0d12" stroke="#39d353" stroke-width="1.2" filter="url(#glow)"/><circle cx="172.5" cy="32.0" r="3" fill="#39d353"/><text x="182.5" y="36.5" font-size="13" fill="#c7cdd6">LangChain</text><rect x="271.1" y="17.0" width="76.4" height="30" rx="15.0" fill="#0a0d12" stroke="#ff3ec8" stroke-width="1.2" filter="url(#glow)"/><circle cx="287.1" cy="32.0" r="3" fill="#ff3ec8"/><text x="297.1" y="36.5" font-size="13" fill="#c7cdd6">Gemini</text><rect x="361.4" y="17.0" width="84.4" height="30" rx="15.0" fill="#0a0d12" stroke="#5ad1e6" stroke-width="1.2" filter="url(#glow)"/><circle cx="377.4" cy="32.0" r="3" fill="#5ad1e6"/><text x="387.4" y="36.5" font-size="13" fill="#c7cdd6">FastAPI</text><rect x="459.9" y="17.0" width="92.5" height="30" rx="15.0" fill="#0a0d12" stroke="#39d353" stroke-width="1.2" filter="url(#glow)"/><circle cx="475.9" cy="32.0" r="3" fill="#39d353"/><text x="485.9" y="36.5" font-size="13" fill="#c7cdd6">Supabase</text><rect x="566.3" y="17.0" width="100.5" height="30" rx="15.0" fill="#0a0d12" stroke="#ffb454" stroke-width="1.2" filter="url(#glow)"/><circle cx="582.3" cy="32.0" r="3" fill="#ffb454"/><text x="592.3" y="36.5" font-size="13" fill="#c7cdd6">Pipedrive</text><rect x="680.9" y="17.0" width="148.9" height="30" rx="15.0" fill="#0a0d12" stroke="#ff3ec8" stroke-width="1.2" filter="url(#glow)"/><circle cx="696.9" cy="32.0" r="3" fill="#ff3ec8"/><text x="706.9" y="36.5" font-size="13" fill="#c7cdd6">RAG / Vector DB</text><rect x="843.8" y="17.0" width="84.4" height="30" rx="15.0" fill="#0a0d12" stroke="#c7cdd6" stroke-width="1.2" filter="url(#glow)"/><circle cx="859.8" cy="32.0" r="3" fill="#c7cdd6"/><text x="869.8" y="36.5" font-size="13" fill="#c7cdd6">Next.js</text><rect x="942.2" y="17.0" width="84.4" height="30" rx="15.0" fill="#0a0d12" stroke="#5ad1e6" stroke-width="1.2" filter="url(#glow)"/><circle cx="958.2" cy="32.0" r="3" fill="#5ad1e6"/><text x="968.2" y="36.5" font-size="13" fill="#c7cdd6">Flutter</text></g>
<g transform="translate(2081.2,0)"><rect x="0.0" y="17.0" width="52.2" height="30" rx="15.0" fill="#0a0d12" stroke="#ffb454" stroke-width="1.2" filter="url(#glow)"/><circle cx="16.0" cy="32.0" r="3" fill="#ffb454"/><text x="26.0" y="36.5" font-size="13" fill="#c7cdd6">n8n</text><rect x="66.2" y="17.0" width="76.4" height="30" rx="15.0" fill="#0a0d12" stroke="#5ad1e6" stroke-width="1.2" filter="url(#glow)"/><circle cx="82.2" cy="32.0" r="3" fill="#5ad1e6"/><text x="92.2" y="36.5" font-size="13" fill="#c7cdd6">OpenAI</text><rect x="156.5" y="17.0" width="100.5" height="30" rx="15.0" fill="#0a0d12" stroke="#39d353" stroke-width="1.2" filter="url(#glow)"/><circle cx="172.5" cy="32.0" r="3" fill="#39d353"/><text x="182.5" y="36.5" font-size="13" fill="#c7cdd6">LangChain</text><rect x="271.1" y="17.0" width="76.4" height="30" rx="15.0" fill="#0a0d12" stroke="#ff3ec8" stroke-width="1.2" filter="url(#glow)"/><circle cx="287.1" cy="32.0" r="3" fill="#ff3ec8"/><text x="297.1" y="36.5" font-size="13" fill="#c7cdd6">Gemini</text><rect x="361.4" y="17.0" width="84.4" height="30" rx="15.0" fill="#0a0d12" stroke="#5ad1e6" stroke-width="1.2" filter="url(#glow)"/><circle cx="377.4" cy="32.0" r="3" fill="#5ad1e6"/><text x="387.4" y="36.5" font-size="13" fill="#c7cdd6">FastAPI</text><rect x="459.9" y="17.0" width="92.5" height="30" rx="15.0" fill="#0a0d12" stroke="#39d353" stroke-width="1.2" filter="url(#glow)"/><circle cx="475.9" cy="32.0" r="3" fill="#39d353"/><text x="485.9" y="36.5" font-size="13" fill="#c7cdd6">Supabase</text><rect x="566.3" y="17.0" width="100.5" height="30" rx="15.0" fill="#0a0d12" stroke="#ffb454" stroke-width="1.2" filter="url(#glow)"/><circle cx="582.3" cy="32.0" r="3" fill="#ffb454"/><text x="592.3" y="36.5" font-size="13" fill="#c7cdd6">Pipedrive</text><rect x="680.9" y="17.0" width="148.9" height="30" rx="15.0" fill="#0a0d12" stroke="#ff3ec8" stroke-width="1.2" filter="url(#glow)"/><circle cx="696.9" cy="32.0" r="3" fill="#ff3ec8"/><text x="706.9" y="36.5" font-size="13" fill="#c7cdd6">RAG / Vector DB</text><rect x="843.8" y="17.0" width="84.4" height="30" rx="15.0" fill="#0a0d12" stroke="#c7cdd6" stroke-width="1.2" filter="url(#glow)"/><circle cx="859.8" cy="32.0" r="3" fill="#c7cdd6"/><text x="869.8" y="36.5" font-size="13" fill="#c7cdd6">Next.js</text><rect x="942.2" y="17.0" width="84.4" height="30" rx="15.0" fill="#0a0d12" stroke="#5ad1e6" stroke-width="1.2" filter="url(#glow)"/><circle cx="958.2" cy="32.0" r="3" fill="#5ad1e6"/><text x="968.2" y="36.5" font-size="13" fill="#c7cdd6">Flutter</text></g>
</g>
</g>
<rect width="100%" height="100%" rx="14" fill="url(#scan)" opacity="0.5"/>
</svg>